<?xml version="1.0" standalone="no"?>
<!DOCTYPE svg PUBLIC "-//W3C//DTD SVG 1.1//EN" "http://www.w3.org/Graphics/SVG/1.1/DTD/svg11.dtd">
<svg width="800" height="600" version="1.1" xmlns="http://www.w3.org/2000/svg">
<rect width="800" height="600" x="0" y="0" style="fill:rgb(238,238,238);stroke:none"/>
<rect width="800" height="600" x="0" y="0" style="fill:rgb(255,255,255);stroke:none"/>
<text x="2" y="566" fill="rgb(0,0,0)" font-family="Arial" font-size="12">0</text>
<text x="2" y="500" fill="rgb(0,0,0)" font-family="Arial" font-size="12">50000</text>
<text x="2" y="433" fill="rgb(0,0,0)" font-family="Arial" font-size="12">100000</text>
<text x="2" y="366" fill="rgb(0,0,0)" font-family="Arial" font-size="12">150000</text>
<text x="2" y="299" fill="rgb(0,0,0)" font-family="Arial" font-size="12">200000</text>
<text x="2" y="232" fill="rgb(0,0,0)" font-family="Arial" font-size="12">250000</text>
<text x="2" y="165" fill="rgb(0,0,0)" font-family="Arial" font-size="12">300000</text>
<text x="2" y="98" fill="rgb(0,0,0)" font-family="Arial" font-size="12">350000</text>
<text x="258" y="30" fill="rgb(0,0,0)" font-family="Arial" font-size="12">Distribution of sequence lengths over all sequences</text>
<line x1="53" y1="560" x2="790" y2="560" stroke="rgb(0,0,0)" stroke-width="1"/>
<line x1="53" y1="560" x2="53" y2="40" stroke="rgb(0,0,0)" stroke-width="1"/>
<text x="330" y="595" fill="rgb(0,0,0)" font-family="Arial" font-size="12">Sequence Length (bp)</text>
<text x="167" y="575" fill="rgb(0,0,0)" font-family="Arial" font-size="12">89</text>
<rect width="245" height="520" x="298" y="40" style="fill:rgb(230,230,230);stroke:none"/>
<text x="412" y="575" fill="rgb(0,0,0)" font-family="Arial" font-size="12">90</text>
<text x="657" y="575" fill="rgb(0,0,0)" font-family="Arial" font-size="12">91</text>
<line x1="53" y1="560" x2="790" y2="560" stroke="rgb(180,180,180)" stroke-width="1"/>
<line x1="53" y1="494" x2="790" y2="494" stroke="rgb(180,180,180)" stroke-width="1"/>
<line x1="53" y1="427" x2="790" y2="427" stroke="rgb(180,180,180)" stroke-width="1"/>
<line x1="53" y1="360" x2="790" y2="360" stroke="rgb(180,180,180)" stroke-width="1"/>
<line x1="53" y1="293" x2="790" y2="293" stroke="rgb(180,180,180)" stroke-width="1"/>
<line x1="53" y1="226" x2="790" y2="226" stroke="rgb(180,180,180)" stroke-width="1"/>
<line x1="53" y1="159" x2="790" y2="159" stroke="rgb(180,180,180)" stroke-width="1"/>
<line x1="53" y1="92" x2="790" y2="92" stroke="rgb(180,180,180)" stroke-width="1"/>
<line x1="175" y1="560" x2="420" y2="40" stroke="rgb(136,34,85)" stroke-width="1"/>
<line x1="420" y1="40" x2="665" y2="560" stroke="rgb(136,34,85)" stroke-width="1"/>
<rect width="130" height="23" x="660" y="40" style="fill:rgb(255,255,255);stroke:none"/>
<rect width="130" height="23" x="660" y="40" rx="0" ry="0" style="fill:none;stroke-width:1;stroke:rgb(192,192,192)"/>
<text x="663" y="55" fill="rgb(136,34,85)" font-family="Arial" font-size="12" font-weight="bold">Sequence Length</text>
</svg>
