<?xml version="1.0" standalone="no"?>
<!DOCTYPE svg PUBLIC "-//W3C//DTD SVG 1.1//EN" "http://www.w3.org/Graphics/SVG/1.1/DTD/svg11.dtd">
<svg width="800" height="600" version="1.1" xmlns="http://www.w3.org/2000/svg">
<rect width="800" height="600" x="0" y="0" style="fill:rgb(238,238,238);stroke:none"/>
<rect width="800" height="600" x="0" y="0" style="fill:rgb(255,255,255);stroke:none"/>
<text x="2" y="566" fill="rgb(0,0,0)" font-family="Arial" font-size="12">0</text>
<text x="2" y="500" fill="rgb(0,0,0)" font-family="Arial" font-size="12">2000</text>
<text x="2" y="434" fill="rgb(0,0,0)" font-family="Arial" font-size="12">4000</text>
<text x="2" y="368" fill="rgb(0,0,0)" font-family="Arial" font-size="12">6000</text>
<text x="2" y="302" fill="rgb(0,0,0)" font-family="Arial" font-size="12">8000</text>
<text x="2" y="236" fill="rgb(0,0,0)" font-family="Arial" font-size="12">10000</text>
<text x="2" y="170" fill="rgb(0,0,0)" font-family="Arial" font-size="12">12000</text>
<text x="2" y="104" fill="rgb(0,0,0)" font-family="Arial" font-size="12">14000</text>
<text x="310" y="30" fill="rgb(0,0,0)" font-family="Arial" font-size="12">GC distribution over all sequences</text>
<line x1="45" y1="560" x2="790" y2="560" stroke="rgb(0,0,0)" stroke-width="1"/>
<line x1="45" y1="560" x2="45" y2="40" stroke="rgb(0,0,0)" stroke-width="1"/>
<text x="334" y="595" fill="rgb(0,0,0)" font-family="Arial" font-size="12">Mean GC content (%)</text>
<text x="44" y="575" fill="rgb(0,0,0)" font-family="Arial" font-size="12">0</text>
<rect width="7" height="520" x="52" y="40" style="fill:rgb(230,230,230);stroke:none"/>
<text x="58" y="575" fill="rgb(0,0,0)" font-family="Arial" font-size="12">2</text>
<rect width="7" height="520" x="66" y="40" style="fill:rgb(230,230,230);stroke:none"/>
<text x="72" y="575" fill="rgb(0,0,0)" font-family="Arial" font-size="12">4</text>
<rect width="7" height="520" x="80" y="40" style="fill:rgb(230,230,230);stroke:none"/>
<text x="86" y="575" fill="rgb(0,0,0)" font-family="Arial" font-size="12">6</text>
<rect width="7" height="520" x="94" y="40" style="fill:rgb(230,230,230);stroke:none"/>
<text x="100" y="575" fill="rgb(0,0,0)" font-family="Arial" font-size="12">8</text>
<rect width="7" height="520" x="108" y="40" style="fill:rgb(230,230,230);stroke:none"/>
<rect width="7" height="520" x="122" y="40" style="fill:rgb(230,230,230);stroke:none"/>
<text x="117" y="575" fill="rgb(0,0,0)" font-family="Arial" font-size="12">11</text>
<rect width="7" height="520" x="136" y="40" style="fill:rgb(230,230,230);stroke:none"/>
<rect width="7" height="520" x="150" y="40" style="fill:rgb(230,230,230);stroke:none"/>
<text x="145" y="575" fill="rgb(0,0,0)" font-family="Arial" font-size="12">15</text>
<rect width="7" height="520" x="164" y="40" style="fill:rgb(230,230,230);stroke:none"/>
<rect width="7" height="520" x="178" y="40" style="fill:rgb(230,230,230);stroke:none"/>
<text x="173" y="575" fill="rgb(0,0,0)" font-family="Arial" font-size="12">19</text>
<rect width="7" height="520" x="192" y="40" style="fill:rgb(230,230,230);stroke:none"/>
<rect width="7" height="520" x="206" y="40" style="fill:rgb(230,230,230);stroke:none"/>
<text x="201" y="575" fill="rgb(0,0,0)" font-family="Arial" font-size="12">23</text>
<rect width="7" height="520" x="220" y="40" style="fill:rgb(230,230,230);stroke:none"/>
<rect width="7" height="520" x="234" y="40" style="fill:rgb(230,230,230);stroke:none"/>
<text x="229" y="575" fill="rgb(0,0,0)" font-family="Arial" font-size="12">27</text>
<rect width="7" height="520" x="248" y="40" style="fill:rgb(230,230,230);stroke:none"/>
<rect width="7" height="520" x="262" y="40" style="fill:rgb(230,230,230);stroke:none"/>
<text x="257" y="575" fill="rgb(0,0,0)" font-family="Arial" font-size="12">31</text>
<rect width="7" height="520" x="276" y="40" style="fill:rgb(230,230,230);stroke:none"/>
<rect width="7" height="520" x="290" y="40" style="fill:rgb(230,230,230);stroke:none"/>
<text x="285" y="575" fill="rgb(0,0,0)" font-family="Arial" font-size="12">35</text>
<rect width="7" height="520" x="304" y="40" style="fill:rgb(230,230,230);stroke:none"/>
<rect width="7" height="520" x="318" y="40" style="fill:rgb(230,230,230);stroke:none"/>
<text x="313" y="575" fill="rgb(0,0,0)" font-family="Arial" font-size="12">39</text>
<rect width="7" height="520" x="332" y="40" style="fill:rgb(230,230,230);stroke:none"/>
<rect width="7" height="520" x="346" y="40" style="fill:rgb(230,230,230);stroke:none"/>
<text x="341" y="575" fill="rgb(0,0,0)" font-family="Arial" font-size="12">43</text>
<rect width="7" height="520" x="360" y="40" style="fill:rgb(230,230,230);stroke:none"/>
<rect width="7" height="520" x="374" y="40" style="fill:rgb(230,230,230);stroke:none"/>
<text x="369" y="575" fill="rgb(0,0,0)" font-family="Arial" font-size="12">47</text>
<rect width="7" height="520" x="388" y="40" style="fill:rgb(230,230,230);stroke:none"/>
<rect width="7" height="520" x="402" y="40" style="fill:rgb(230,230,230);stroke:none"/>
<text x="397" y="575" fill="rgb(0,0,0)" font-family="Arial" font-size="12">51</text>
<rect width="7" height="520" x="416" y="40" style="fill:rgb(230,230,230);stroke:none"/>
<rect width="7" height="520" x="430" y="40" style="fill:rgb(230,230,230);stroke:none"/>
<text x="425" y="575" fill="rgb(0,0,0)" font-family="Arial" font-size="12">55</text>
<rect width="7" height="520" x="444" y="40" style="fill:rgb(230,230,230);stroke:none"/>
<rect width="7" height="520" x="458" y="40" style="fill:rgb(230,230,230);stroke:none"/>
<text x="453" y="575" fill="rgb(0,0,0)" font-family="Arial" font-size="12">59</text>
<rect width="7" height="520" x="472" y="40" style="fill:rgb(230,230,230);stroke:none"/>
<rect width="7" height="520" x="486" y="40" style="fill:rgb(230,230,230);stroke:none"/>
<text x="481" y="575" fill="rgb(0,0,0)" font-family="Arial" font-size="12">63</text>
<rect width="7" height="520" x="500" y="40" style="fill:rgb(230,230,230);stroke:none"/>
<rect width="7" height="520" x="514" y="40" style="fill:rgb(230,230,230);stroke:none"/>
<text x="509" y="575" fill="rgb(0,0,0)" font-family="Arial" font-size="12">67</text>
<rect width="7" height="520" x="528" y="40" style="fill:rgb(230,230,230);stroke:none"/>
<rect width="7" height="520" x="542" y="40" style="fill:rgb(230,230,230);stroke:none"/>
<text x="537" y="575" fill="rgb(0,0,0)" font-family="Arial" font-size="12">71</text>
<rect width="7" height="520" x="556" y="40" style="fill:rgb(230,230,230);stroke:none"/>
<rect width="7" height="520" x="570" y="40" style="fill:rgb(230,230,230);stroke:none"/>
<text x="565" y="575" fill="rgb(0,0,0)" font-family="Arial" font-size="12">75</text>
<rect width="7" height="520" x="584" y="40" style="fill:rgb(230,230,230);stroke:none"/>
<rect width="7" height="520" x="598" y="40" style="fill:rgb(230,230,230);stroke:none"/>
<text x="593" y="575" fill="rgb(0,0,0)" font-family="Arial" font-size="12">79</text>
<rect width="7" height="520" x="612" y="40" style="fill:rgb(230,230,230);stroke:none"/>
<rect width="7" height="520" x="626" y="40" style="fill:rgb(230,230,230);stroke:none"/>
<text x="621" y="575" fill="rgb(0,0,0)" font-family="Arial" font-size="12">83</text>
<rect width="7" height="520" x="640" y="40" style="fill:rgb(230,230,230);stroke:none"/>
<rect width="7" height="520" x="654" y="40" style="fill:rgb(230,230,230);stroke:none"/>
<text x="649" y="575" fill="rgb(0,0,0)" font-family="Arial" font-size="12">87</text>
<rect width="7" height="520" x="668" y="40" style="fill:rgb(230,230,230);stroke:none"/>
<rect width="7" height="520" x="682" y="40" style="fill:rgb(230,230,230);stroke:none"/>
<text x="677" y="575" fill="rgb(0,0,0)" font-family="Arial" font-size="12">91</text>
<rect width="7" height="520" x="696" y="40" style="fill:rgb(230,230,230);stroke:none"/>
<rect width="7" height="520" x="710" y="40" style="fill:rgb(230,230,230);stroke:none"/>
<text x="705" y="575" fill="rgb(0,0,0)" font-family="Arial" font-size="12">95</text>
<rect width="7" height="520" x="724" y="40" style="fill:rgb(230,230,230);stroke:none"/>
<rect width="7" height="520" x="738" y="40" style="fill:rgb(230,230,230);stroke:none"/>
<text x="733" y="575" fill="rgb(0,0,0)" font-family="Arial" font-size="12">99</text>
<line x1="45" y1="560" x2="790" y2="560" stroke="rgb(180,180,180)" stroke-width="1"/>
<line x1="45" y1="494" x2="790" y2="494" stroke="rgb(180,180,180)" stroke-width="1"/>
<line x1="45" y1="428" x2="790" y2="428" stroke="rgb(180,180,180)" stroke-width="1"/>
<line x1="45" y1="362" x2="790" y2="362" stroke="rgb(180,180,180)" stroke-width="1"/>
<line x1="45" y1="296" x2="790" y2="296" stroke="rgb(180,180,180)" stroke-width="1"/>
<line x1="45" y1="230" x2="790" y2="230" stroke="rgb(180,180,180)" stroke-width="1"/>
<line x1="45" y1="164" x2="790" y2="164" stroke="rgb(180,180,180)" stroke-width="1"/>
<line x1="45" y1="98" x2="790" y2="98" stroke="rgb(180,180,180)" stroke-width="1"/>
<line x1="48" y1="560" x2="55" y2="560" stroke="rgb(136,34,85)" stroke-width="1"/>
<line x1="55" y1="560" x2="62" y2="560" stroke="rgb(136,34,85)" stroke-width="1"/>
<line x1="62" y1="560" x2="69" y2="560" stroke="rgb(136,34,85)" stroke-width="1"/>
<line x1="69" y1="560" x2="76" y2="560" stroke="rgb(136,34,85)" stroke-width="1"/>
<line x1="76" y1="560" x2="83" y2="560" stroke="rgb(136,34,85)" stroke-width="1"/>
<line x1="83" y1="560" x2="90" y2="560" stroke="rgb(136,34,85)" stroke-width="1"/>
<line x1="90" y1="560" x2="97" y2="560" stroke="rgb(136,34,85)" stroke-width="1"/>
<line x1="97" y1="560" x2="104" y2="560" stroke="rgb(136,34,85)" stroke-width="1"/>
<line x1="104" y1="560" x2="111" y2="560" stroke="rgb(136,34,85)" stroke-width="1"/>
<line x1="111" y1="560" x2="118" y2="560" stroke="rgb(136,34,85)" stroke-width="1"/>
<line x1="118" y1="560" x2="125" y2="559" stroke="rgb(136,34,85)" stroke-width="1"/>
<line x1="125" y1="559" x2="132" y2="559" stroke="rgb(136,34,85)" stroke-width="1"/>
<line x1="132" y1="559" x2="139" y2="558" stroke="rgb(136,34,85)" stroke-width="1"/>
<line x1="139" y1="558" x2="146" y2="557" stroke="rgb(136,34,85)" stroke-width="1"/>
<line x1="146" y1="557" x2="153" y2="556" stroke="rgb(136,34,85)" stroke-width="1"/>
<line x1="153" y1="556" x2="160" y2="554" stroke="rgb(136,34,85)" stroke-width="1"/>
<line x1="160" y1="554" x2="167" y2="551" stroke="rgb(136,34,85)" stroke-width="1"/>
<line x1="167" y1="551" x2="174" y2="547" stroke="rgb(136,34,85)" stroke-width="1"/>
<line x1="174" y1="547" x2="181" y2="539" stroke="rgb(136,34,85)" stroke-width="1"/>
<line x1="181" y1="539" x2="188" y2="535" stroke="rgb(136,34,85)" stroke-width="1"/>
<line x1="188" y1="535" x2="195" y2="530" stroke="rgb(136,34,85)" stroke-width="1"/>
<line x1="195" y1="530" x2="202" y2="519" stroke="rgb(136,34,85)" stroke-width="1"/>
<line x1="202" y1="519" x2="209" y2="505" stroke="rgb(136,34,85)" stroke-width="1"/>
<line x1="209" y1="505" x2="216" y2="488" stroke="rgb(136,34,85)" stroke-width="1"/>
<line x1="216" y1="488" x2="223" y2="468" stroke="rgb(136,34,85)" stroke-width="1"/>
<line x1="223" y1="468" x2="230" y2="444" stroke="rgb(136,34,85)" stroke-width="1"/>
<line x1="230" y1="444" x2="237" y2="411" stroke="rgb(136,34,85)" stroke-width="1"/>
<line x1="237" y1="411" x2="244" y2="378" stroke="rgb(136,34,85)" stroke-width="1"/>
<line x1="244" y1="378" x2="251" y2="349" stroke="rgb(136,34,85)" stroke-width="1"/>
<line x1="251" y1="349" x2="258" y2="335" stroke="rgb(136,34,85)" stroke-width="1"/>
<line x1="258" y1="335" x2="265" y2="317" stroke="rgb(136,34,85)" stroke-width="1"/>
<line x1="265" y1="317" x2="272" y2="282" stroke="rgb(136,34,85)" stroke-width="1"/>
<line x1="272" y1="282" x2="279" y2="240" stroke="rgb(136,34,85)" stroke-width="1"/>
<line x1="279" y1="240" x2="286" y2="193" stroke="rgb(136,34,85)" stroke-width="1"/>
<line x1="286" y1="193" x2="293" y2="152" stroke="rgb(136,34,85)" stroke-width="1"/>
<line x1="293" y1="152" x2="300" y2="120" stroke="rgb(136,34,85)" stroke-width="1"/>
<line x1="300" y1="120" x2="307" y2="95" stroke="rgb(136,34,85)" stroke-width="1"/>
<line x1="307" y1="95" x2="314" y2="78" stroke="rgb(136,34,85)" stroke-width="1"/>
<line x1="314" y1="78" x2="321" y2="73" stroke="rgb(136,34,85)" stroke-width="1"/>
<line x1="321" y1="73" x2="328" y2="73" stroke="rgb(136,34,85)" stroke-width="1"/>
<line x1="328" y1="73" x2="335" y2="72" stroke="rgb(136,34,85)" stroke-width="1"/>
<line x1="335" y1="72" x2="342" y2="76" stroke="rgb(136,34,85)" stroke-width="1"/>
<line x1="342" y1="76" x2="349" y2="88" stroke="rgb(136,34,85)" stroke-width="1"/>
<line x1="349" y1="88" x2="356" y2="96" stroke="rgb(136,34,85)" stroke-width="1"/>
<line x1="356" y1="96" x2="363" y2="97" stroke="rgb(136,34,85)" stroke-width="1"/>
<line x1="363" y1="97" x2="370" y2="103" stroke="rgb(136,34,85)" stroke-width="1"/>
<line x1="370" y1="103" x2="377" y2="108" stroke="rgb(136,34,85)" stroke-width="1"/>
<line x1="377" y1="108" x2="384" y2="113" stroke="rgb(136,34,85)" stroke-width="1"/>
<line x1="384" y1="113" x2="391" y2="127" stroke="rgb(136,34,85)" stroke-width="1"/>
<line x1="391" y1="127" x2="398" y2="137" stroke="rgb(136,34,85)" stroke-width="1"/>
<line x1="398" y1="137" x2="405" y2="146" stroke="rgb(136,34,85)" stroke-width="1"/>
<line x1="405" y1="146" x2="412" y2="163" stroke="rgb(136,34,85)" stroke-width="1"/>
<line x1="412" y1="163" x2="419" y2="176" stroke="rgb(136,34,85)" stroke-width="1"/>
<line x1="419" y1="176" x2="426" y2="190" stroke="rgb(136,34,85)" stroke-width="1"/>
<line x1="426" y1="190" x2="433" y2="205" stroke="rgb(136,34,85)" stroke-width="1"/>
<line x1="433" y1="205" x2="440" y2="220" stroke="rgb(136,34,85)" stroke-width="1"/>
<line x1="440" y1="220" x2="447" y2="240" stroke="rgb(136,34,85)" stroke-width="1"/>
<line x1="447" y1="240" x2="454" y2="267" stroke="rgb(136,34,85)" stroke-width="1"/>
<line x1="454" y1="267" x2="461" y2="304" stroke="rgb(136,34,85)" stroke-width="1"/>
<line x1="461" y1="304" x2="468" y2="323" stroke="rgb(136,34,85)" stroke-width="1"/>
<line x1="468" y1="323" x2="475" y2="340" stroke="rgb(136,34,85)" stroke-width="1"/>
<line x1="475" y1="340" x2="482" y2="374" stroke="rgb(136,34,85)" stroke-width="1"/>
<line x1="482" y1="374" x2="489" y2="410" stroke="rgb(136,34,85)" stroke-width="1"/>
<line x1="489" y1="410" x2="496" y2="442" stroke="rgb(136,34,85)" stroke-width="1"/>
<line x1="496" y1="442" x2="503" y2="469" stroke="rgb(136,34,85)" stroke-width="1"/>
<line x1="503" y1="469" x2="510" y2="491" stroke="rgb(136,34,85)" stroke-width="1"/>
<line x1="510" y1="491" x2="517" y2="509" stroke="rgb(136,34,85)" stroke-width="1"/>
<line x1="517" y1="509" x2="524" y2="525" stroke="rgb(136,34,85)" stroke-width="1"/>
<line x1="524" y1="525" x2="531" y2="534" stroke="rgb(136,34,85)" stroke-width="1"/>
<line x1="531" y1="534" x2="538" y2="537" stroke="rgb(136,34,85)" stroke-width="1"/>
<line x1="538" y1="537" x2="545" y2="540" stroke="rgb(136,34,85)" stroke-width="1"/>
<line x1="545" y1="540" x2="552" y2="546" stroke="rgb(136,34,85)" stroke-width="1"/>
<line x1="552" y1="546" x2="559" y2="551" stroke="rgb(136,34,85)" stroke-width="1"/>
<line x1="559" y1="551" x2="566" y2="554" stroke="rgb(136,34,85)" stroke-width="1"/>
<line x1="566" y1="554" x2="573" y2="556" stroke="rgb(136,34,85)" stroke-width="1"/>
<line x1="573" y1="556" x2="580" y2="557" stroke="rgb(136,34,85)" stroke-width="1"/>
<line x1="580" y1="557" x2="587" y2="559" stroke="rgb(136,34,85)" stroke-width="1"/>
<line x1="587" y1="559" x2="594" y2="559" stroke="rgb(136,34,85)" stroke-width="1"/>
<line x1="594" y1="559" x2="601" y2="560" stroke="rgb(136,34,85)" stroke-width="1"/>
<line x1="601" y1="560" x2="608" y2="560" stroke="rgb(136,34,85)" stroke-width="1"/>
<line x1="608" y1="560" x2="615" y2="560" stroke="rgb(136,34,85)" stroke-width="1"/>
<line x1="615" y1="560" x2="622" y2="560" stroke="rgb(136,34,85)" stroke-width="1"/>
<line x1="622" y1="560" x2="629" y2="560" stroke="rgb(136,34,85)" stroke-width="1"/>
<line x1="629" y1="560" x2="636" y2="560" stroke="rgb(136,34,85)" stroke-width="1"/>
<line x1="636" y1="560" x2="643" y2="560" stroke="rgb(136,34,85)" stroke-width="1"/>
<line x1="643" y1="560" x2="650" y2="560" stroke="rgb(136,34,85)" stroke-width="1"/>
<line x1="650" y1="560" x2="657" y2="560" stroke="rgb(136,34,85)" stroke-width="1"/>
<line x1="657" y1="560" x2="664" y2="560" stroke="rgb(136,34,85)" stroke-width="1"/>
<line x1="664" y1="560" x2="671" y2="560" stroke="rgb(136,34,85)" stroke-width="1"/>
<line x1="671" y1="560" x2="678" y2="560" stroke="rgb(136,34,85)" stroke-width="1"/>
<line x1="678" y1="560" x2="685" y2="560" stroke="rgb(136,34,85)" stroke-width="1"/>
<line x1="685" y1="560" x2="692" y2="560" stroke="rgb(136,34,85)" stroke-width="1"/>
<line x1="692" y1="560" x2="699" y2="560" stroke="rgb(136,34,85)" stroke-width="1"/>
<line x1="699" y1="560" x2="706" y2="560" stroke="rgb(136,34,85)" stroke-width="1"/>
<line x1="706" y1="560" x2="713" y2="560" stroke="rgb(136,34,85)" stroke-width="1"/>
<line x1="713" y1="560" x2="720" y2="560" stroke="rgb(136,34,85)" stroke-width="1"/>
<line x1="720" y1="560" x2="727" y2="560" stroke="rgb(136,34,85)" stroke-width="1"/>
<line x1="727" y1="560" x2="734" y2="560" stroke="rgb(136,34,85)" stroke-width="1"/>
<line x1="734" y1="560" x2="741" y2="560" stroke="rgb(136,34,85)" stroke-width="1"/>
<line x1="741" y1="560" x2="748" y2="560" stroke="rgb(136,34,85)" stroke-width="1"/>
<line x1="48" y1="560" x2="55" y2="560" stroke="rgb(51,34,136)" stroke-width="1"/>
<line x1="55" y1="560" x2="62" y2="560" stroke="rgb(51,34,136)" stroke-width="1"/>
<line x1="62" y1="560" x2="69" y2="560" stroke="rgb(51,34,136)" stroke-width="1"/>
<line x1="69" y1="560" x2="76" y2="559" stroke="rgb(51,34,136)" stroke-width="1"/>
<line x1="76" y1="559" x2="83" y2="559" stroke="rgb(51,34,136)" stroke-width="1"/>
<line x1="83" y1="559" x2="90" y2="558" stroke="rgb(51,34,136)" stroke-width="1"/>
<line x1="90" y1="558" x2="97" y2="557" stroke="rgb(51,34,136)" stroke-width="1"/>
<line x1="97" y1="557" x2="104" y2="556" stroke="rgb(51,34,136)" stroke-width="1"/>
<line x1="104" y1="556" x2="111" y2="555" stroke="rgb(51,34,136)" stroke-width="1"/>
<line x1="111" y1="555" x2="118" y2="553" stroke="rgb(51,34,136)" stroke-width="1"/>
<line x1="118" y1="553" x2="125" y2="551" stroke="rgb(51,34,136)" stroke-width="1"/>
<line x1="125" y1="551" x2="132" y2="548" stroke="rgb(51,34,136)" stroke-width="1"/>
<line x1="132" y1="548" x2="139" y2="545" stroke="rgb(51,34,136)" stroke-width="1"/>
<line x1="139" y1="545" x2="146" y2="541" stroke="rgb(51,34,136)" stroke-width="1"/>
<line x1="146" y1="541" x2="153" y2="536" stroke="rgb(51,34,136)" stroke-width="1"/>
<line x1="153" y1="536" x2="160" y2="530" stroke="rgb(51,34,136)" stroke-width="1"/>
<line x1="160" y1="530" x2="167" y2="522" stroke="rgb(51,34,136)" stroke-width="1"/>
<line x1="167" y1="522" x2="174" y2="514" stroke="rgb(51,34,136)" stroke-width="1"/>
<line x1="174" y1="514" x2="181" y2="504" stroke="rgb(51,34,136)" stroke-width="1"/>
<line x1="181" y1="504" x2="188" y2="492" stroke="rgb(51,34,136)" stroke-width="1"/>
<line x1="188" y1="492" x2="195" y2="478" stroke="rgb(51,34,136)" stroke-width="1"/>
<line x1="195" y1="478" x2="202" y2="463" stroke="rgb(51,34,136)" stroke-width="1"/>
<line x1="202" y1="463" x2="209" y2="446" stroke="rgb(51,34,136)" stroke-width="1"/>
<line x1="209" y1="446" x2="216" y2="426" stroke="rgb(51,34,136)" stroke-width="1"/>
<line x1="216" y1="426" x2="223" y2="405" stroke="rgb(51,34,136)" stroke-width="1"/>
<line x1="223" y1="405" x2="230" y2="382" stroke="rgb(51,34,136)" stroke-width="1"/>
<line x1="230" y1="382" x2="237" y2="358" stroke="rgb(51,34,136)" stroke-width="1"/>
<line x1="237" y1="358" x2="244" y2="331" stroke="rgb(51,34,136)" stroke-width="1"/>
<line x1="244" y1="331" x2="251" y2="304" stroke="rgb(51,34,136)" stroke-width="1"/>
<line x1="251" y1="304" x2="258" y2="276" stroke="rgb(51,34,136)" stroke-width="1"/>
<line x1="258" y1="276" x2="265" y2="247" stroke="rgb(51,34,136)" stroke-width="1"/>
<line x1="265" y1="247" x2="272" y2="218" stroke="rgb(51,34,136)" stroke-width="1"/>
<line x1="272" y1="218" x2="279" y2="190" stroke="rgb(51,34,136)" stroke-width="1"/>
<line x1="279" y1="190" x2="286" y2="163" stroke="rgb(51,34,136)" stroke-width="1"/>
<line x1="286" y1="163" x2="293" y2="137" stroke="rgb(51,34,136)" stroke-width="1"/>
<line x1="293" y1="137" x2="300" y2="113" stroke="rgb(51,34,136)" stroke-width="1"/>
<line x1="300" y1="113" x2="307" y2="92" stroke="rgb(51,34,136)" stroke-width="1"/>
<line x1="307" y1="92" x2="314" y2="74" stroke="rgb(51,34,136)" stroke-width="1"/>
<line x1="314" y1="74" x2="321" y2="60" stroke="rgb(51,34,136)" stroke-width="1"/>
<line x1="321" y1="60" x2="328" y2="49" stroke="rgb(51,34,136)" stroke-width="1"/>
<line x1="328" y1="49" x2="335" y2="43" stroke="rgb(51,34,136)" stroke-width="1"/>
<line x1="335" y1="43" x2="342" y2="40" stroke="rgb(51,34,136)" stroke-width="1"/>
<line x1="342" y1="40" x2="349" y2="43" stroke="rgb(51,34,136)" stroke-width="1"/>
<line x1="349" y1="43" x2="356" y2="49" stroke="rgb(51,34,136)" stroke-width="1"/>
<line x1="356" y1="49" x2="363" y2="60" stroke="rgb(51,34,136)" stroke-width="1"/>
<line x1="363" y1="60" x2="370" y2="74" stroke="rgb(51,34,136)" stroke-width="1"/>
<line x1="370" y1="74" x2="377" y2="92" stroke="rgb(51,34,136)" stroke-width="1"/>
<line x1="377" y1="92" x2="384" y2="113" stroke="rgb(51,34,136)" stroke-width="1"/>
<line x1="384" y1="113" x2="391" y2="137" stroke="rgb(51,34,136)" stroke-width="1"/>
<line x1="391" y1="137" x2="398" y2="163" stroke="rgb(51,34,136)" stroke-width="1"/>
<line x1="398" y1="163" x2="405" y2="190" stroke="rgb(51,34,136)" stroke-width="1"/>
<line x1="405" y1="190" x2="412" y2="218" stroke="rgb(51,34,136)" stroke-width="1"/>
<line x1="412" y1="218" x2="419" y2="247" stroke="rgb(51,34,136)" stroke-width="1"/>
<line x1="419" y1="247" x2="426" y2="276" stroke="rgb(51,34,136)" stroke-width="1"/>
<line x1="426" y1="276" x2="433" y2="304" stroke="rgb(51,34,136)" stroke-width="1"/>
<line x1="433" y1="304" x2="440" y2="331" stroke="rgb(51,34,136)" stroke-width="1"/>
<line x1="440" y1="331" x2="447" y2="358" stroke="rgb(51,34,136)" stroke-width="1"/>
<line x1="447" y1="358" x2="454" y2="382" stroke="rgb(51,34,136)" stroke-width="1"/>
<line x1="454" y1="382" x2="461" y2="405" stroke="rgb(51,34,136)" stroke-width="1"/>
<line x1="461" y1="405" x2="468" y2="426" stroke="rgb(51,34,136)" stroke-width="1"/>
<line x1="468" y1="426" x2="475" y2="446" stroke="rgb(51,34,136)" stroke-width="1"/>
<line x1="475" y1="446" x2="482" y2="463" stroke="rgb(51,34,136)" stroke-width="1"/>
<line x1="482" y1="463" x2="489" y2="478" stroke="rgb(51,34,136)" stroke-width="1"/>
<line x1="489" y1="478" x2="496" y2="492" stroke="rgb(51,34,136)" stroke-width="1"/>
<line x1="496" y1="492" x2="503" y2="504" stroke="rgb(51,34,136)" stroke-width="1"/>
<line x1="503" y1="504" x2="510" y2="514" stroke="rgb(51,34,136)" stroke-width="1"/>
<line x1="510" y1="514" x2="517" y2="522" stroke="rgb(51,34,136)" stroke-width="1"/>
<line x1="517" y1="522" x2="524" y2="530" stroke="rgb(51,34,136)" stroke-width="1"/>
<line x1="524" y1="530" x2="531" y2="536" stroke="rgb(51,34,136)" stroke-width="1"/>
<line x1="531" y1="536" x2="538" y2="541" stroke="rgb(51,34,136)" stroke-width="1"/>
<line x1="538" y1="541" x2="545" y2="545" stroke="rgb(51,34,136)" stroke-width="1"/>
<line x1="545" y1="545" x2="552" y2="548" stroke="rgb(51,34,136)" stroke-width="1"/>
<line x1="552" y1="548" x2="559" y2="551" stroke="rgb(51,34,136)" stroke-width="1"/>
<line x1="559" y1="551" x2="566" y2="553" stroke="rgb(51,34,136)" stroke-width="1"/>
<line x1="566" y1="553" x2="573" y2="555" stroke="rgb(51,34,136)" stroke-width="1"/>
<line x1="573" y1="555" x2="580" y2="556" stroke="rgb(51,34,136)" stroke-width="1"/>
<line x1="580" y1="556" x2="587" y2="557" stroke="rgb(51,34,136)" stroke-width="1"/>
<line x1="587" y1="557" x2="594" y2="558" stroke="rgb(51,34,136)" stroke-width="1"/>
<line x1="594" y1="558" x2="601" y2="559" stroke="rgb(51,34,136)" stroke-width="1"/>
<line x1="601" y1="559" x2="608" y2="559" stroke="rgb(51,34,136)" stroke-width="1"/>
<line x1="608" y1="559" x2="615" y2="560" stroke="rgb(51,34,136)" stroke-width="1"/>
<line x1="615" y1="560" x2="622" y2="560" stroke="rgb(51,34,136)" stroke-width="1"/>
<line x1="622" y1="560" x2="629" y2="560" stroke="rgb(51,34,136)" stroke-width="1"/>
<line x1="629" y1="560" x2="636" y2="560" stroke="rgb(51,34,136)" stroke-width="1"/>
<line x1="636" y1="560" x2="643" y2="560" stroke="rgb(51,34,136)" stroke-width="1"/>
<line x1="643" y1="560" x2="650" y2="560" stroke="rgb(51,34,136)" stroke-width="1"/>
<line x1="650" y1="560" x2="657" y2="560" stroke="rgb(51,34,136)" stroke-width="1"/>
<line x1="657" y1="560" x2="664" y2="560" stroke="rgb(51,34,136)" stroke-width="1"/>
<line x1="664" y1="560" x2="671" y2="560" stroke="rgb(51,34,136)" stroke-width="1"/>
<line x1="671" y1="560" x2="678" y2="560" stroke="rgb(51,34,136)" stroke-width="1"/>
<line x1="678" y1="560" x2="685" y2="560" stroke="rgb(51,34,136)" stroke-width="1"/>
<line x1="685" y1="560" x2="692" y2="560" stroke="rgb(51,34,136)" stroke-width="1"/>
<line x1="692" y1="560" x2="699" y2="560" stroke="rgb(51,34,136)" stroke-width="1"/>
<line x1="699" y1="560" x2="706" y2="560" stroke="rgb(51,34,136)" stroke-width="1"/>
<line x1="706" y1="560" x2="713" y2="560" stroke="rgb(51,34,136)" stroke-width="1"/>
<line x1="713" y1="560" x2="720" y2="560" stroke="rgb(51,34,136)" stroke-width="1"/>
<line x1="720" y1="560" x2="727" y2="560" stroke="rgb(51,34,136)" stroke-width="1"/>
<line x1="727" y1="560" x2="734" y2="560" stroke="rgb(51,34,136)" stroke-width="1"/>
<line x1="734" y1="560" x2="741" y2="560" stroke="rgb(51,34,136)" stroke-width="1"/>
<line x1="741" y1="560" x2="748" y2="560" stroke="rgb(51,34,136)" stroke-width="1"/>
<rect width="174" height="43" x="616" y="40" style="fill:rgb(255,255,255);stroke:none"/>
<rect width="174" height="43" x="616" y="40" rx="0" ry="0" style="fill:none;stroke-width:1;stroke:rgb(192,192,192)"/>
<text x="619" y="55" fill="rgb(136,34,85)" font-family="Arial" font-size="12" font-weight="bold">GC count per read</text>
<text x="619" y="75" fill="rgb(51,34,136)" font-family="Arial" font-size="12" font-weight="bold">Theoretical Distribution</text>
</svg>
